<svg xmlns="http://www.w3.org/2000/svg" version="1.1" xmlns:xlink="http://www.w3.org/1999/xlink" xmlns:svgjs="http://svgjs.dev/svgjs" width="1500" height="477" viewBox="0 0 1500 477"><g transform="matrix(1,0,0,1,-0.9090909090909918,0.8940422436691051)"><svg viewBox="0 0 396 126" data-background-color="#000000" preserveAspectRatio="xMidYMid meet" height="477" width="1500" xmlns="http://www.w3.org/2000/svg" xmlns:xlink="http://www.w3.org/1999/xlink"><g id="tight-bounds" transform="matrix(1,0,0,1,0.2400000000000091,-0.2361621021012752)"><svg viewBox="0 0 395.52 126.47232420420256" height="126.47232420420256" width="395.52"><g><svg viewBox="0 0 628.5922275899653 200.99999999999997" height="126.47232420420256" width="395.52"><g></g><g transform="matrix(1,0,0,1,251.47071201588,0.4999999999999858)"><svg viewBox="0 0 377.1215155740853 200" height="200" width="377.1215155740853"><g id="textblocktransform"><svg viewBox="0 0 377.1215155740853 200" height="200" width="377.1215155740853" id="textblock"><g><svg viewBox="0 0 377.1215155740853 200" height="200" width="377.1215155740853"><g transform="matrix(1,0,0,1,0,0)"><svg width="377.1215155740853" viewBox="-1.1999999999999984 -31.86 133.58802451996485 67.84" height="200" data-palette-color="url(#48d9fed9-d782-4506-b9e7-62f391b2fb65)"><svg></svg><svg></svg><g class="wordmark-text-0" data-fill-palette-color="primary" id="text-0"></g></svg></g></svg></g></svg></g></svg></g><g transform="matrix(1,0,0,1,0,0.4999999999999858)"><svg viewBox="0 0 200 200" height="200" width="200"><g><svg xmlns="http://www.w3.org/2000/svg" xmlns:xlink="http://www.w3.org/1999/xlink" version="1.1" x="0" y="0" viewBox="22 22 468 468" style="enable-background:new 0 0 512 512;" xml:space="preserve" height="200" width="200" class="icon-icon-0" data-fill-palette-color="accent" id="icon-0"></svg></g></svg></g></svg></g><defs></defs><mask id="02a8448a-79d8-43c1-bc77-09a4ca03985e"><g id="SvgjsG2089"><svg viewBox="0 0 395.52 126.47232420420256" height="126.47232420420256" width="395.52"><g><svg viewBox="0 0 628.5922275899653 200.99999999999997" height="126.47232420420256" width="395.52"><g><rect width="8.254329131010145" height="200.99999999999997" x="221.60819144243493" y="0" fill="white" opacity="1" stroke-width="0" stroke="transparent" fill-opacity="1" class="rect-qz-0" rx="1%" id="SvgjsRect2088" data-palette-color="url(#48d9fed9-d782-4506-b9e7-62f391b2fb65)"></rect></g><g transform="matrix(1,0,0,1,251.47071201588,0.4999999999999858)"><svg viewBox="0 0 377.1215155740853 200" height="200" width="377.1215155740853"><g id="SvgjsG2087"><svg viewBox="0 0 377.1215155740853 200" height="200" width="377.1215155740853" id="SvgjsSvg2086"><g><svg viewBox="0 0 377.1215155740853 200" height="200" width="377.1215155740853"><g transform="matrix(1,0,0,1,0,0)"><svg width="377.1215155740853" viewBox="-1.1999999999999984 -31.86 133.58802451996485 67.84" height="200" data-palette-color="url(#48d9fed9-d782-4506-b9e7-62f391b2fb65)"><svg></svg><svg></svg><g class="wordmark-text-0" data-fill-palette-color="primary" id="SvgjsG2085"><path d="M25.1-22.75v0c-0.633 3.073-2.067 5.36-4.3 6.86-2.227 1.493-5.073 2.24-8.54 2.24v0h-7.21l-2.9 13.65h-3.35l6.74-31.86h10.5c3.5 0 6.05 0.76 7.65 2.28 1.607 1.527 2.077 3.803 1.41 6.83zM21.75-22.75v0c0.473-2.2 0.123-3.793-1.05-4.78-1.167-0.98-2.9-1.47-5.2-1.47v0h-7.2l-2.66 12.5h7.2c2.313 0 4.26-0.493 5.84-1.48 1.573-0.987 2.597-2.577 3.07-4.77zM45.29-31.86l-0.95 4.57h-4.55l0.96-4.57zM43.7-2.86l-0.61 2.86h-13.65l0.61-2.86h5.16l3.58-17.04h-5.15l0.61-2.85h8.5l-4.2 19.89zM76.1-2.95l-0.61 2.95h-9.4l0.61-2.95h2l-3.1-6.6-5.86 6.6h1.86l-0.61 2.95h-9.31l0.61-2.95h3.54l8.11-8.6-4.3-8.2h-3.29l0.63-3h9.35l-0.63 3h-2.1l2.83 6.2 5.52-6.2h-2.32l0.66-3h9.45l-0.64 3h-3.22l-7.69 8.2 4.39 8.6zM104.64-10.21h-19.65c-0.267 2.413 0.2 4.337 1.4 5.77 1.193 1.433 3.013 2.15 5.46 2.15v0c1.687 0 3.273-0.35 4.76-1.05 1.48-0.7 2.677-1.573 3.59-2.62v0l1.97 1.61c-1.46 1.6-3.073 2.817-4.84 3.65-1.767 0.84-3.797 1.26-6.09 1.26v0c-1.78 0-3.333-0.293-4.66-0.88-1.327-0.587-2.417-1.403-3.27-2.45-0.853-1.053-1.423-2.303-1.71-3.75-0.28-1.447-0.217-3.057 0.19-4.83v0c0.353-1.727 0.95-3.32 1.79-4.78 0.84-1.453 1.873-2.713 3.1-3.78 1.233-1.067 2.633-1.897 4.2-2.49 1.573-0.593 3.237-0.89 4.99-0.89v0c1.94 0 3.56 0.327 4.86 0.98 1.307 0.647 2.323 1.543 3.05 2.69 0.733 1.147 1.157 2.52 1.27 4.12 0.113 1.593-0.023 3.357-0.41 5.29zM85.64-13.06h16.04c0.167-2.493-0.34-4.35-1.52-5.57-1.18-1.22-2.82-1.83-4.92-1.83v0c-1.073 0-2.103 0.177-3.09 0.53-0.987 0.347-1.893 0.847-2.72 1.5-0.833 0.647-1.583 1.43-2.25 2.35-0.667 0.92-1.18 1.927-1.54 3.02zM125.59-2.86l-0.61 2.86h-13.65l0.61-2.86h5.15l5.54-26.14h-5.15l0.61-2.86h8.5l-6.16 29z" fill="white" fill-rule="nonzero" stroke="none" stroke-width="1" stroke-linecap="butt" stroke-linejoin="miter" stroke-miterlimit="10" stroke-dasharray="" stroke-dashoffset="0" font-family="none" font-weight="none" font-size="none" text-anchor="none" style="mix-blend-mode: normal" opacity="1"></path><path transform="translate(0,35.42)" d="M25.1-22.75v0c-0.633 3.073-2.067 5.36-4.3 6.86-2.227 1.493-5.073 2.24-8.54 2.24v0h-7.21l-2.9 13.65h-3.35l6.74-31.86h10.5c3.5 0 6.05 0.76 7.65 2.28 1.607 1.527 2.077 3.803 1.41 6.83zM21.75-22.75v0c0.473-2.2 0.123-3.793-1.05-4.78-1.167-0.98-2.9-1.47-5.2-1.47v0h-7.2l-2.66 12.5h7.2c2.313 0 4.26-0.493 5.84-1.48 1.573-0.987 2.597-2.577 3.07-4.77zM27.91-8.69l2.97-14.06h3.37l-3 14.06c-0.407 2.033-0.293 3.607 0.34 4.72 0.633 1.12 1.937 1.68 3.91 1.68v0c1.233 0 2.417-0.287 3.55-0.86 1.133-0.567 2.15-1.327 3.05-2.28 0.907-0.953 1.663-2.043 2.27-3.27 0.613-1.233 1.073-2.517 1.38-3.85v0l2.15-10.2h3.35l-4.81 22.75h-3.35l1.2-5.69c-2.493 4.167-5.807 6.25-9.94 6.25v0c-5.6 0-7.747-3.083-6.44-9.25zM71-2.86l-0.61 2.86h-13.65l0.61-2.86h5.15l5.54-26.14h-5.15l0.61-2.86h8.5l-6.16 29zM102.93-6.3v0c-0.26 1.333-0.817 2.44-1.67 3.32-0.853 0.88-1.863 1.58-3.03 2.1-1.167 0.52-2.423 0.89-3.77 1.11-1.353 0.22-2.647 0.33-3.88 0.33v0c-2.067 0-4.057-0.3-5.97-0.9-1.913-0.607-3.52-1.397-4.82-2.37v0l2.09-2.88c1.467 1.06 2.95 1.873 4.45 2.44 1.493 0.573 3.113 0.86 4.86 0.86v0c5.027 0 7.823-1.303 8.39-3.91v0c0.133-0.633 0.033-1.15-0.3-1.55-0.333-0.4-0.827-0.727-1.48-0.98-0.647-0.253-1.403-0.453-2.27-0.6-0.86-0.147-1.78-0.283-2.76-0.41v0c-1.22-0.18-2.43-0.393-3.63-0.64-1.207-0.24-2.273-0.603-3.2-1.09-0.927-0.493-1.62-1.147-2.08-1.96-0.453-0.813-0.543-1.887-0.27-3.22v0c0.26-1.14 0.767-2.123 1.52-2.95 0.747-0.833 1.66-1.527 2.74-2.08 1.087-0.553 2.313-0.96 3.68-1.22 1.367-0.26 2.75-0.39 4.15-0.39v0c2 0 3.74 0.23 5.22 0.69 1.487 0.467 2.767 1.13 3.84 1.99v0l-1.91 2.62c-1.087-0.913-2.267-1.553-3.54-1.92-1.267-0.367-2.683-0.55-4.25-0.55v0c-0.7 0-1.483 0.06-2.35 0.18-0.873 0.127-1.707 0.34-2.5 0.64-0.8 0.3-1.5 0.69-2.1 1.17-0.607 0.48-0.99 1.087-1.15 1.82v0c-0.133 0.633-0.033 1.143 0.3 1.53 0.333 0.38 0.823 0.697 1.47 0.95 0.64 0.253 1.397 0.453 2.27 0.6 0.873 0.147 1.79 0.283 2.75 0.41v0c1.2 0.18 2.41 0.393 3.63 0.64 1.22 0.24 2.297 0.597 3.23 1.07 0.927 0.473 1.627 1.117 2.1 1.93 0.467 0.813 0.547 1.887 0.24 3.22zM131.93-10.21h-19.65c-0.26 2.413 0.207 4.337 1.4 5.77 1.2 1.433 3.02 2.15 5.46 2.15v0c1.693 0 3.28-0.35 4.76-1.05 1.48-0.7 2.677-1.573 3.59-2.62v0l1.98 1.61c-1.467 1.6-3.083 2.817-4.85 3.65-1.767 0.84-3.797 1.26-6.09 1.26v0c-1.773 0-3.323-0.293-4.65-0.88-1.327-0.587-2.417-1.403-3.27-2.45-0.853-1.053-1.423-2.303-1.71-3.75-0.287-1.447-0.227-3.057 0.18-4.83v0c0.36-1.727 0.96-3.32 1.8-4.78 0.833-1.453 1.867-2.713 3.1-3.78 1.227-1.067 2.627-1.897 4.2-2.49 1.567-0.593 3.23-0.89 4.99-0.89v0c1.933 0 3.553 0.327 4.86 0.98 1.3 0.647 2.317 1.543 3.05 2.69 0.733 1.147 1.157 2.52 1.27 4.12 0.113 1.593-0.027 3.357-0.42 5.29zM112.94-13.06h16.04c0.16-2.493-0.35-4.35-1.53-5.57-1.18-1.22-2.82-1.83-4.92-1.83v0c-1.073 0-2.1 0.177-3.08 0.53-0.987 0.347-1.897 0.847-2.73 1.5-0.827 0.647-1.573 1.43-2.24 2.35-0.667 0.92-1.18 1.927-1.54 3.02z" fill="white" fill-rule="nonzero" stroke="none" stroke-width="1" stroke-linecap="butt" stroke-linejoin="miter" stroke-miterlimit="10" stroke-dasharray="" stroke-dashoffset="0" font-family="none" font-weight="none" font-size="none" text-anchor="none" style="mix-blend-mode: normal" opacity="1"></path></g></svg></g></svg></g></svg></g></svg></g><g transform="matrix(1,0,0,1,0,0.4999999999999858)"><svg viewBox="0 0 200 200" height="200" width="200"><g><svg xmlns="http://www.w3.org/2000/svg" xmlns:xlink="http://www.w3.org/1999/xlink" version="1.1" x="0" y="0" viewBox="22 22 468 468" style="enable-background:new 0 0 512 512;" xml:space="preserve" height="200" width="200" class="icon-icon-0" data-fill-palette-color="accent" id="SvgjsSvg2084"><g fill="black"><g fill="black"><g fill="black"><g fill="black"><path d="M66 490c-2.209 0-4-1.791-4-4V26c0-2.209 1.791-4 4-4s4 1.791 4 4v460C70 488.209 68.209 490 66 490z" fill="black"></path></g><g fill="black"><path d="M446 490c-2.209 0-4-1.791-4-4V26c0-2.209 1.791-4 4-4s4 1.791 4 4v460C450 488.209 448.209 490 446 490z" fill="black"></path></g></g><g fill="black"><g fill="black"><path d="M486 70H26c-2.209 0-4-1.791-4-4s1.791-4 4-4h460c2.209 0 4 1.791 4 4S488.209 70 486 70z" fill="black"></path></g><g fill="black"><path d="M486 450H26c-2.209 0-4-1.791-4-4s1.791-4 4-4h460c2.209 0 4 1.791 4 4S488.209 450 486 450z" fill="black"></path></g></g><g fill="black"><g fill="black"><path d="M196 190H66c-2.209 0-4-1.791-4-4V66c0-2.209 1.791-4 4-4h130c2.209 0 4 1.791 4 4v120C200 188.209 198.209 190 196 190zM70 182h122V70H70V182z" fill="black"></path></g><g fill="black"><path d="M326 190H196c-2.209 0-4-1.791-4-4V66c0-2.209 1.791-4 4-4h130c2.209 0 4 1.791 4 4v120C330 188.209 328.209 190 326 190zM200 182h122V70H200V182z" fill="black"></path></g><g fill="black"><path d="M446 190H326c-2.209 0-4-1.791-4-4V66c0-2.209 1.791-4 4-4h120c2.209 0 4 1.791 4 4v120C450 188.209 448.209 190 446 190zM330 182h112V70H330V182z" fill="black"></path></g></g><g fill="black"><g fill="black"><path d="M196 320H66c-2.209 0-4-1.791-4-4V186c0-2.209 1.791-4 4-4h130c2.209 0 4 1.791 4 4v130C200 318.209 198.209 320 196 320zM70 312h122V190H70V312z" fill="black"></path></g><g fill="black"><path d="M326 320H196c-2.209 0-4-1.791-4-4V186c0-2.209 1.791-4 4-4h130c2.209 0 4 1.791 4 4v130C330 318.209 328.209 320 326 320zM200 312h122V190H200V312z" fill="black"></path></g><g fill="black"><path d="M446 320H326c-2.209 0-4-1.791-4-4V186c0-2.209 1.791-4 4-4h120c2.209 0 4 1.791 4 4v130C450 318.209 448.209 320 446 320zM330 312h112V190H330V312z" fill="black"></path></g></g><g fill="black"><g fill="black"><path d="M196 450H66c-2.209 0-4-1.791-4-4V316c0-2.209 1.791-4 4-4h130c2.209 0 4 1.791 4 4v130C200 448.209 198.209 450 196 450zM70 442h122V320H70V442z" fill="black"></path></g><g fill="black"><path d="M326 450H196c-2.209 0-4-1.791-4-4V316c0-2.209 1.791-4 4-4h130c2.209 0 4 1.791 4 4v130C330 448.209 328.209 450 326 450zM200 442h122V320H200V442z" fill="black"></path></g><g fill="black"><path d="M446 450H326c-2.209 0-4-1.791-4-4V316c0-2.209 1.791-4 4-4h120c2.209 0 4 1.791 4 4v130C450 448.209 448.209 450 446 450zM330 442h112V320H330V442z" fill="black"></path></g></g></g></g></svg></g></svg></g></svg></g><defs><mask></mask></defs></svg><rect width="395.52" height="126.47232420420256" fill="black" stroke="none" visibility="hidden"></rect></g></mask><linearGradient x1="0" x2="1" y1="0.5" y2="0.5" id="48d9fed9-d782-4506-b9e7-62f391b2fb65"><stop stop-color="#ffa62e" offset="0"></stop><stop stop-color="#f71b3d" offset="1"></stop></linearGradient><rect width="395.52" height="126.47232420420256" fill="url(#48d9fed9-d782-4506-b9e7-62f391b2fb65)" mask="url(#02a8448a-79d8-43c1-bc77-09a4ca03985e)" data-fill-palette-color="primary"></rect><mask id="7accb8b5-573d-4c7d-a457-e79a93162186"><g id="SvgjsG2112"><svg viewBox="0 0 395.52 126.47232420420256" height="126.47232420420256" width="395.52"><g><svg viewBox="0 0 628.5922275899653 200.99999999999997" height="126.47232420420256" width="395.52"><g></g><g transform="matrix(1,0,0,1,251.47071201588,0.4999999999999858)"><svg viewBox="0 0 377.1215155740853 200" height="200" width="377.1215155740853"><g id="SvgjsG2111"><svg viewBox="0 0 377.1215155740853 200" height="200" width="377.1215155740853" id="SvgjsSvg2110"><g><svg viewBox="0 0 377.1215155740853 200" height="200" width="377.1215155740853"><g transform="matrix(1,0,0,1,0,0)"><svg width="377.1215155740853" viewBox="-1.1999999999999984 -31.86 133.58802451996485 67.84" height="200" data-palette-color="url(#48d9fed9-d782-4506-b9e7-62f391b2fb65)"><svg></svg><svg></svg><g class="wordmark-text-0" data-fill-palette-color="primary" id="SvgjsG2109"></g></svg></g></svg></g></svg></g></svg></g><g transform="matrix(1,0,0,1,0,0.4999999999999858)"><svg viewBox="0 0 200 200" height="200" width="200"><g><svg xmlns="http://www.w3.org/2000/svg" xmlns:xlink="http://www.w3.org/1999/xlink" version="1.1" x="0" y="0" viewBox="22 22 468 468" style="enable-background:new 0 0 512 512;" xml:space="preserve" height="200" width="200" class="icon-icon-0" data-fill-palette-color="accent" id="SvgjsSvg2108"><g fill="white"><g fill="white"><g fill="white"><g fill="white"><path d="M66 490c-2.209 0-4-1.791-4-4V26c0-2.209 1.791-4 4-4s4 1.791 4 4v460C70 488.209 68.209 490 66 490z" fill="white"></path></g><g fill="white"><path d="M446 490c-2.209 0-4-1.791-4-4V26c0-2.209 1.791-4 4-4s4 1.791 4 4v460C450 488.209 448.209 490 446 490z" fill="white"></path></g></g><g fill="white"><g fill="white"><path d="M486 70H26c-2.209 0-4-1.791-4-4s1.791-4 4-4h460c2.209 0 4 1.791 4 4S488.209 70 486 70z" fill="white"></path></g><g fill="white"><path d="M486 450H26c-2.209 0-4-1.791-4-4s1.791-4 4-4h460c2.209 0 4 1.791 4 4S488.209 450 486 450z" fill="white"></path></g></g><g fill="white"><g fill="white"><path d="M196 190H66c-2.209 0-4-1.791-4-4V66c0-2.209 1.791-4 4-4h130c2.209 0 4 1.791 4 4v120C200 188.209 198.209 190 196 190zM70 182h122V70H70V182z" fill="white"></path></g><g fill="white"><path d="M326 190H196c-2.209 0-4-1.791-4-4V66c0-2.209 1.791-4 4-4h130c2.209 0 4 1.791 4 4v120C330 188.209 328.209 190 326 190zM200 182h122V70H200V182z" fill="white"></path></g><g fill="white"><path d="M446 190H326c-2.209 0-4-1.791-4-4V66c0-2.209 1.791-4 4-4h120c2.209 0 4 1.791 4 4v120C450 188.209 448.209 190 446 190zM330 182h112V70H330V182z" fill="white"></path></g></g><g fill="white"><g fill="white"><path d="M196 320H66c-2.209 0-4-1.791-4-4V186c0-2.209 1.791-4 4-4h130c2.209 0 4 1.791 4 4v130C200 318.209 198.209 320 196 320zM70 312h122V190H70V312z" fill="white"></path></g><g fill="white"><path d="M326 320H196c-2.209 0-4-1.791-4-4V186c0-2.209 1.791-4 4-4h130c2.209 0 4 1.791 4 4v130C330 318.209 328.209 320 326 320zM200 312h122V190H200V312z" fill="white"></path></g><g fill="white"><path d="M446 320H326c-2.209 0-4-1.791-4-4V186c0-2.209 1.791-4 4-4h120c2.209 0 4 1.791 4 4v130C450 318.209 448.209 320 446 320zM330 312h112V190H330V312z" fill="white"></path></g></g><g fill="white"><g fill="white"><path d="M196 450H66c-2.209 0-4-1.791-4-4V316c0-2.209 1.791-4 4-4h130c2.209 0 4 1.791 4 4v130C200 448.209 198.209 450 196 450zM70 442h122V320H70V442z" fill="white"></path></g><g fill="white"><path d="M326 450H196c-2.209 0-4-1.791-4-4V316c0-2.209 1.791-4 4-4h130c2.209 0 4 1.791 4 4v130C330 448.209 328.209 450 326 450zM200 442h122V320H200V442z" fill="white"></path></g><g fill="white"><path d="M446 450H326c-2.209 0-4-1.791-4-4V316c0-2.209 1.791-4 4-4h120c2.209 0 4 1.791 4 4v130C450 448.209 448.209 450 446 450zM330 442h112V320H330V442z" fill="white"></path></g></g></g></g></svg></g></svg></g></svg></g><defs><mask></mask></defs><mask><g id="SvgjsG2107"><svg viewBox="0 0 395.52 126.47232420420256" height="126.47232420420256" width="395.52"><g><svg viewBox="0 0 628.5922275899653 200.99999999999997" height="126.47232420420256" width="395.52"><g><rect width="8.254329131010145" height="200.99999999999997" x="221.60819144243493" y="0" fill="black" opacity="1" stroke-width="0" stroke="transparent" fill-opacity="1" class="rect-qz-0" rx="1%" id="SvgjsRect2106" data-palette-color="url(#48d9fed9-d782-4506-b9e7-62f391b2fb65)"></rect></g><g transform="matrix(1,0,0,1,251.47071201588,0.4999999999999858)"><svg viewBox="0 0 377.1215155740853 200" height="200" width="377.1215155740853"><g id="SvgjsG2105"><svg viewBox="0 0 377.1215155740853 200" height="200" width="377.1215155740853" id="SvgjsSvg2104"><g><svg viewBox="0 0 377.1215155740853 200" height="200" width="377.1215155740853"><g transform="matrix(1,0,0,1,0,0)"><svg width="377.1215155740853" viewBox="-1.1999999999999984 -31.86 133.58802451996485 67.84" height="200" data-palette-color="url(#48d9fed9-d782-4506-b9e7-62f391b2fb65)"><svg></svg><svg></svg><g class="wordmark-text-0" data-fill-palette-color="primary" id="SvgjsG2103"><path d="M25.1-22.75v0c-0.633 3.073-2.067 5.36-4.3 6.86-2.227 1.493-5.073 2.24-8.54 2.24v0h-7.21l-2.9 13.65h-3.35l6.74-31.86h10.5c3.5 0 6.05 0.76 7.65 2.28 1.607 1.527 2.077 3.803 1.41 6.83zM21.75-22.75v0c0.473-2.2 0.123-3.793-1.05-4.78-1.167-0.98-2.9-1.47-5.2-1.47v0h-7.2l-2.66 12.5h7.2c2.313 0 4.26-0.493 5.84-1.48 1.573-0.987 2.597-2.577 3.07-4.77zM45.29-31.86l-0.95 4.57h-4.55l0.96-4.57zM43.7-2.86l-0.61 2.86h-13.65l0.61-2.86h5.16l3.58-17.04h-5.15l0.61-2.85h8.5l-4.2 19.89zM76.1-2.95l-0.61 2.95h-9.4l0.61-2.95h2l-3.1-6.6-5.86 6.6h1.86l-0.61 2.95h-9.31l0.61-2.95h3.54l8.11-8.6-4.3-8.2h-3.29l0.63-3h9.35l-0.63 3h-2.1l2.83 6.2 5.52-6.2h-2.32l0.66-3h9.45l-0.64 3h-3.22l-7.69 8.2 4.39 8.6zM104.64-10.21h-19.65c-0.267 2.413 0.2 4.337 1.4 5.77 1.193 1.433 3.013 2.15 5.46 2.15v0c1.687 0 3.273-0.35 4.76-1.05 1.48-0.7 2.677-1.573 3.59-2.62v0l1.97 1.61c-1.46 1.6-3.073 2.817-4.84 3.65-1.767 0.84-3.797 1.26-6.09 1.26v0c-1.78 0-3.333-0.293-4.66-0.88-1.327-0.587-2.417-1.403-3.27-2.45-0.853-1.053-1.423-2.303-1.71-3.75-0.28-1.447-0.217-3.057 0.19-4.83v0c0.353-1.727 0.95-3.32 1.79-4.78 0.84-1.453 1.873-2.713 3.1-3.78 1.233-1.067 2.633-1.897 4.2-2.49 1.573-0.593 3.237-0.89 4.99-0.89v0c1.94 0 3.56 0.327 4.86 0.98 1.307 0.647 2.323 1.543 3.05 2.69 0.733 1.147 1.157 2.52 1.27 4.12 0.113 1.593-0.023 3.357-0.41 5.29zM85.64-13.06h16.04c0.167-2.493-0.34-4.35-1.52-5.57-1.18-1.22-2.82-1.83-4.92-1.83v0c-1.073 0-2.103 0.177-3.09 0.53-0.987 0.347-1.893 0.847-2.72 1.5-0.833 0.647-1.583 1.43-2.25 2.35-0.667 0.92-1.18 1.927-1.54 3.02zM125.59-2.86l-0.61 2.86h-13.65l0.61-2.86h5.15l5.54-26.14h-5.15l0.61-2.86h8.5l-6.16 29z" fill="black" fill-rule="nonzero" stroke="none" stroke-width="1" stroke-linecap="butt" stroke-linejoin="miter" stroke-miterlimit="10" stroke-dasharray="" stroke-dashoffset="0" font-family="none" font-weight="none" font-size="none" text-anchor="none" style="mix-blend-mode: normal" opacity="1"></path><path transform="translate(0,35.42)" d="M25.1-22.75v0c-0.633 3.073-2.067 5.36-4.3 6.86-2.227 1.493-5.073 2.24-8.54 2.24v0h-7.21l-2.9 13.65h-3.35l6.74-31.86h10.5c3.5 0 6.05 0.76 7.65 2.28 1.607 1.527 2.077 3.803 1.41 6.83zM21.75-22.75v0c0.473-2.2 0.123-3.793-1.05-4.78-1.167-0.98-2.9-1.47-5.2-1.47v0h-7.2l-2.66 12.5h7.2c2.313 0 4.26-0.493 5.84-1.48 1.573-0.987 2.597-2.577 3.07-4.77zM27.91-8.69l2.97-14.06h3.37l-3 14.06c-0.407 2.033-0.293 3.607 0.34 4.72 0.633 1.12 1.937 1.68 3.91 1.68v0c1.233 0 2.417-0.287 3.55-0.86 1.133-0.567 2.15-1.327 3.05-2.28 0.907-0.953 1.663-2.043 2.27-3.27 0.613-1.233 1.073-2.517 1.38-3.85v0l2.15-10.2h3.35l-4.81 22.75h-3.35l1.2-5.69c-2.493 4.167-5.807 6.25-9.94 6.25v0c-5.6 0-7.747-3.083-6.44-9.25zM71-2.86l-0.61 2.86h-13.65l0.61-2.86h5.15l5.54-26.14h-5.15l0.61-2.86h8.5l-6.16 29zM102.93-6.3v0c-0.26 1.333-0.817 2.44-1.67 3.32-0.853 0.88-1.863 1.58-3.03 2.1-1.167 0.52-2.423 0.89-3.77 1.11-1.353 0.22-2.647 0.33-3.88 0.33v0c-2.067 0-4.057-0.3-5.97-0.9-1.913-0.607-3.52-1.397-4.82-2.37v0l2.09-2.88c1.467 1.06 2.95 1.873 4.45 2.44 1.493 0.573 3.113 0.86 4.86 0.86v0c5.027 0 7.823-1.303 8.39-3.91v0c0.133-0.633 0.033-1.15-0.3-1.55-0.333-0.4-0.827-0.727-1.48-0.98-0.647-0.253-1.403-0.453-2.27-0.6-0.86-0.147-1.78-0.283-2.76-0.41v0c-1.22-0.18-2.43-0.393-3.63-0.64-1.207-0.24-2.273-0.603-3.2-1.09-0.927-0.493-1.62-1.147-2.08-1.96-0.453-0.813-0.543-1.887-0.27-3.22v0c0.26-1.14 0.767-2.123 1.52-2.95 0.747-0.833 1.66-1.527 2.74-2.08 1.087-0.553 2.313-0.96 3.68-1.22 1.367-0.26 2.75-0.39 4.15-0.39v0c2 0 3.74 0.23 5.22 0.69 1.487 0.467 2.767 1.13 3.84 1.99v0l-1.91 2.62c-1.087-0.913-2.267-1.553-3.54-1.92-1.267-0.367-2.683-0.55-4.25-0.55v0c-0.7 0-1.483 0.06-2.35 0.18-0.873 0.127-1.707 0.34-2.5 0.64-0.8 0.3-1.5 0.69-2.1 1.17-0.607 0.48-0.99 1.087-1.15 1.82v0c-0.133 0.633-0.033 1.143 0.3 1.53 0.333 0.38 0.823 0.697 1.47 0.95 0.64 0.253 1.397 0.453 2.27 0.6 0.873 0.147 1.79 0.283 2.75 0.41v0c1.2 0.18 2.41 0.393 3.63 0.64 1.22 0.24 2.297 0.597 3.23 1.07 0.927 0.473 1.627 1.117 2.1 1.93 0.467 0.813 0.547 1.887 0.24 3.22zM131.93-10.21h-19.65c-0.26 2.413 0.207 4.337 1.4 5.77 1.2 1.433 3.02 2.15 5.46 2.15v0c1.693 0 3.28-0.35 4.76-1.05 1.48-0.7 2.677-1.573 3.59-2.62v0l1.98 1.61c-1.467 1.6-3.083 2.817-4.85 3.65-1.767 0.84-3.797 1.26-6.09 1.26v0c-1.773 0-3.323-0.293-4.65-0.88-1.327-0.587-2.417-1.403-3.27-2.45-0.853-1.053-1.423-2.303-1.71-3.75-0.287-1.447-0.227-3.057 0.18-4.83v0c0.36-1.727 0.96-3.32 1.8-4.78 0.833-1.453 1.867-2.713 3.1-3.78 1.227-1.067 2.627-1.897 4.2-2.49 1.567-0.593 3.23-0.89 4.99-0.89v0c1.933 0 3.553 0.327 4.86 0.98 1.3 0.647 2.317 1.543 3.05 2.69 0.733 1.147 1.157 2.52 1.27 4.12 0.113 1.593-0.027 3.357-0.42 5.29zM112.94-13.06h16.04c0.16-2.493-0.35-4.35-1.53-5.57-1.18-1.22-2.82-1.83-4.92-1.83v0c-1.073 0-2.1 0.177-3.08 0.53-0.987 0.347-1.897 0.847-2.73 1.5-0.827 0.647-1.573 1.43-2.24 2.35-0.667 0.92-1.18 1.927-1.54 3.02z" fill="black" fill-rule="nonzero" stroke="none" stroke-width="1" stroke-linecap="butt" stroke-linejoin="miter" stroke-miterlimit="10" stroke-dasharray="" stroke-dashoffset="0" font-family="none" font-weight="none" font-size="none" text-anchor="none" style="mix-blend-mode: normal" opacity="1"></path></g></svg></g></svg></g></svg></g></svg></g><g transform="matrix(1,0,0,1,0,0.4999999999999858)"><svg viewBox="0 0 200 200" height="200" width="200"><g><svg xmlns="http://www.w3.org/2000/svg" xmlns:xlink="http://www.w3.org/1999/xlink" version="1.1" x="0" y="0" viewBox="22 22 468 468" style="enable-background:new 0 0 512 512;" xml:space="preserve" height="200" width="200" class="icon-icon-0" data-fill-palette-color="accent" id="SvgjsSvg2102"><g fill="black"><g fill="black"><g fill="black"><g fill="black"><path d="M66 490c-2.209 0-4-1.791-4-4V26c0-2.209 1.791-4 4-4s4 1.791 4 4v460C70 488.209 68.209 490 66 490z" fill="black"></path></g><g fill="black"><path d="M446 490c-2.209 0-4-1.791-4-4V26c0-2.209 1.791-4 4-4s4 1.791 4 4v460C450 488.209 448.209 490 446 490z" fill="black"></path></g></g><g fill="black"><g fill="black"><path d="M486 70H26c-2.209 0-4-1.791-4-4s1.791-4 4-4h460c2.209 0 4 1.791 4 4S488.209 70 486 70z" fill="black"></path></g><g fill="black"><path d="M486 450H26c-2.209 0-4-1.791-4-4s1.791-4 4-4h460c2.209 0 4 1.791 4 4S488.209 450 486 450z" fill="black"></path></g></g><g fill="black"><g fill="black"><path d="M196 190H66c-2.209 0-4-1.791-4-4V66c0-2.209 1.791-4 4-4h130c2.209 0 4 1.791 4 4v120C200 188.209 198.209 190 196 190zM70 182h122V70H70V182z" fill="black"></path></g><g fill="black"><path d="M326 190H196c-2.209 0-4-1.791-4-4V66c0-2.209 1.791-4 4-4h130c2.209 0 4 1.791 4 4v120C330 188.209 328.209 190 326 190zM200 182h122V70H200V182z" fill="black"></path></g><g fill="black"><path d="M446 190H326c-2.209 0-4-1.791-4-4V66c0-2.209 1.791-4 4-4h120c2.209 0 4 1.791 4 4v120C450 188.209 448.209 190 446 190zM330 182h112V70H330V182z" fill="black"></path></g></g><g fill="black"><g fill="black"><path d="M196 320H66c-2.209 0-4-1.791-4-4V186c0-2.209 1.791-4 4-4h130c2.209 0 4 1.791 4 4v130C200 318.209 198.209 320 196 320zM70 312h122V190H70V312z" fill="black"></path></g><g fill="black"><path d="M326 320H196c-2.209 0-4-1.791-4-4V186c0-2.209 1.791-4 4-4h130c2.209 0 4 1.791 4 4v130C330 318.209 328.209 320 326 320zM200 312h122V190H200V312z" fill="black"></path></g><g fill="black"><path d="M446 320H326c-2.209 0-4-1.791-4-4V186c0-2.209 1.791-4 4-4h120c2.209 0 4 1.791 4 4v130C450 318.209 448.209 320 446 320zM330 312h112V190H330V312z" fill="black"></path></g></g><g fill="black"><g fill="black"><path d="M196 450H66c-2.209 0-4-1.791-4-4V316c0-2.209 1.791-4 4-4h130c2.209 0 4 1.791 4 4v130C200 448.209 198.209 450 196 450zM70 442h122V320H70V442z" fill="black"></path></g><g fill="black"><path d="M326 450H196c-2.209 0-4-1.791-4-4V316c0-2.209 1.791-4 4-4h130c2.209 0 4 1.791 4 4v130C330 448.209 328.209 450 326 450zM200 442h122V320H200V442z" fill="black"></path></g><g fill="black"><path d="M446 450H326c-2.209 0-4-1.791-4-4V316c0-2.209 1.791-4 4-4h120c2.209 0 4 1.791 4 4v130C450 448.209 448.209 450 446 450zM330 442h112V320H330V442z" fill="black"></path></g></g></g></g></svg></g></svg></g></svg></g><defs><mask></mask></defs></svg><rect width="395.52" height="126.47232420420256" fill="black" stroke="none" visibility="hidden"></rect></g></mask></svg><rect width="395.52" height="126.47232420420256" fill="black" stroke="none" visibility="hidden"></rect></g></mask><linearGradient x1="0" x2="1" y1="0.5" y2="0.5" id="078e429a-6912-42fa-a905-af66b9809d80"><stop stop-color="#ffa62e" offset="0"></stop><stop stop-color="#f71b3d" offset="1"></stop></linearGradient><rect width="395.52" height="126.47232420420256" fill="url(#078e429a-6912-42fa-a905-af66b9809d80)" mask="url(#7accb8b5-573d-4c7d-a457-e79a93162186)" data-fill-palette-color="accent"></rect></svg><rect width="395.52" height="126.47232420420256" fill="none" stroke="none" visibility="hidden"></rect></g></svg></g></svg>